<svg width="200" height="193" viewBox="0 0 200 193" fill="none" xmlns="http://www.w3.org/2000/svg">
<path d="M102.802 188.45C148.792 188.45 186.073 151.169 186.073 105.179C186.073 59.19 148.792 21.9082 102.802 21.9082C56.813 21.9082 19.5312 59.19 19.5312 105.179C19.5312 151.169 56.813 188.45 102.802 188.45Z" fill="url(#paint0_linear_364_4589)"/>
<path fill-rule="evenodd" clip-rule="evenodd" d="M101.289 144.933C101.289 141.493 104.077 138.705 107.517 138.705H143.653C148.59 138.705 153.309 140.166 156.943 142.837C160.576 145.508 163.459 149.706 163.459 154.918C163.459 160.128 160.577 164.328 156.946 167C153.312 169.673 148.592 171.136 143.653 171.136H57.7906C54.3509 171.136 51.5625 168.348 51.5625 164.908C51.5625 161.469 54.3509 158.68 57.7906 158.68H143.653C146.214 158.68 148.283 157.908 149.564 156.966C150.847 156.023 151.003 155.227 151.003 154.918C151.003 154.61 150.848 153.816 149.566 152.874C148.286 151.933 146.216 151.161 143.653 151.161L107.153 149.938C103.713 149.938 101.289 148.373 101.289 144.933Z" fill="url(#paint1_linear_364_4589)"/>
<path fill-rule="evenodd" clip-rule="evenodd" d="M157.848 70.6566C158.668 67.5933 161.443 65.4629 164.614 65.4629H192.942C196.81 65.4629 199.946 68.5986 199.946 72.4668C199.946 76.3349 196.81 79.4707 192.942 79.4707H169.99L161.818 110.014C160.819 113.751 156.979 115.969 153.242 114.97C149.506 113.97 147.287 110.13 148.287 106.394L157.848 70.6566Z" fill="url(#paint2_linear_364_4589)"/>
<path d="M151.832 44.3691H66.8596L60.1562 59.0209H145.123L151.832 44.3691Z" fill="url(#paint3_linear_364_4589)"/>
<path d="M109.093 42.2207H53.5156L60.2251 59.0865H115.796L109.093 42.2207Z" fill="url(#paint4_linear_364_4589)"/>
<path d="M152.865 42.2207H122.335L115.625 59.0865H146.155L152.865 42.2207Z" fill="url(#paint5_linear_364_4589)"/>
<path d="M146.202 59.0176H90.625V114.595H146.202V59.0176Z" fill="url(#paint6_linear_364_4589)"/>
<path d="M115.734 59.0176H60.1562V114.595H115.734V59.0176Z" fill="url(#paint7_linear_364_4589)"/>
<path d="M78.4543 192.684C86.8342 192.684 93.6274 185.891 93.6274 177.511C93.6274 169.131 86.8342 162.338 78.4543 162.338C70.0745 162.338 63.2812 169.131 63.2812 177.511C63.2812 185.891 70.0745 192.684 78.4543 192.684Z" fill="#6FCFE4"/>
<path d="M153.847 84.2129H49.2856C41.4476 84.2129 35.658 90.8611 37.4305 97.8159L45.9492 138.723C47.231 143.746 52.1435 147.309 57.8043 147.309L150 153.275L165.727 97.8343C169.601 86.4846 161.704 84.2129 153.847 84.2129Z" fill="url(#paint8_linear_364_4589)"/>
<path d="M77.9353 185.201C82.1453 185.201 85.5582 181.788 85.5582 177.578C85.5582 173.368 82.1453 169.955 77.9353 169.955C73.7254 169.955 70.3125 173.368 70.3125 177.578C70.3125 181.788 73.7254 185.201 77.9353 185.201Z" fill="url(#paint9_linear_364_4589)"/>
<mask id="mask0_364_4589" style="mask-type:alpha" maskUnits="userSpaceOnUse" x="37" y="84" width="130" height="70">
<path d="M153.847 84.0176H49.2856C41.4476 84.0176 35.658 90.6658 37.4305 97.6206L45.9492 138.528C47.231 143.551 52.1435 147.114 57.8043 147.114L150 153.08L165.727 97.639C167.499 90.6658 161.704 84.0176 153.847 84.0176Z" fill="url(#paint10_linear_364_4589)"/>
</mask>
<g mask="url(#mask0_364_4589)">
<rect width="8.71166" height="40.4419" rx="4.35583" transform="matrix(0.999966 0.00825468 -0.0123002 0.999924 109.766 115.463)" fill="url(#paint11_linear_364_4589)"/>
<rect width="8.71166" height="153.393" rx="4.35583" transform="matrix(0.00661527 0.999978 -0.999997 0.00256955 185.547 86.3613)" fill="#61C2D8"/>
<rect width="8.71166" height="40.4419" rx="4.35583" transform="matrix(0.999966 0.00825468 -0.0123002 0.999924 134.375 115.463)" fill="url(#paint12_linear_364_4589)"/>
<rect width="8.71166" height="40.4419" rx="4.35583" transform="matrix(0.999966 0.00825468 -0.0123002 0.999924 85.1562 115.268)" fill="url(#paint13_linear_364_4589)"/>
<rect width="8.71166" height="40.4419" rx="4.35583" transform="matrix(0.999966 0.00825468 -0.0123002 0.999924 60.1562 115.268)" fill="url(#paint14_linear_364_4589)"/>
</g>
<path fill-rule="evenodd" clip-rule="evenodd" d="M133.11 2.23912C132.049 0.379711 130.08 -0.494956 128.712 0.285488C127.344 1.06593 127.095 3.20595 128.156 5.06536C128.179 5.10544 128.202 5.14507 128.226 5.18423C127.55 5.34999 126.924 6.0189 126.674 6.93153C126.344 8.13711 126.797 9.31147 127.686 9.55453C128.575 9.79758 129.562 9.0173 129.892 7.81171C129.976 7.50552 130.009 7.20134 129.998 6.91392C130.864 7.37657 131.8 7.44896 132.554 7.019C133.258 6.61732 133.665 5.85548 133.751 4.95712C133.982 5.10079 134.246 5.2172 134.534 5.29602C135.74 5.62575 136.914 5.17265 137.157 4.28398C137.4 3.39531 136.62 2.40759 135.414 2.07786C134.559 1.84382 133.719 2.00417 133.216 2.4347C133.182 2.36921 133.147 2.30399 133.11 2.23912Z" fill="url(#paint15_linear_364_4589)"/>
<path fill-rule="evenodd" clip-rule="evenodd" d="M70.2213 9.64599C69.6013 10.2703 68.824 10.5963 68.0392 10.4748C67.1475 10.3367 66.4397 9.6507 66.0594 8.69217C65.9072 8.8766 65.7254 9.04934 65.5165 9.20223C64.5079 9.94033 63.2492 9.93596 62.7051 9.19247C62.161 8.44897 62.5376 7.24789 63.5462 6.50978C64.3032 5.95587 65.2009 5.8201 65.8318 6.10106C66.1935 4.04152 67.6955 2.57699 69.2257 2.81398C70.7652 3.05243 71.7566 4.92406 71.4609 7.01196C72.0615 7.07554 72.7073 7.45966 73.1707 8.09289C73.9088 9.10153 73.9045 10.3603 73.161 10.9043C72.4175 11.4484 71.2164 11.0718 70.4783 10.0632C70.3792 9.92784 70.2936 9.788 70.2213 9.64599Z" fill="url(#paint16_linear_364_4589)"/>
<path d="M13.2108 94.2361C13.7284 92.0921 16.778 92.0921 17.2956 94.2361L17.918 96.8145C18.1029 97.5806 18.7011 98.1789 19.4673 98.3638L22.0457 98.9862C24.1897 99.5038 24.1897 102.553 22.0457 103.071L19.4673 103.693C18.7011 103.878 18.1029 104.477 17.918 105.243L17.2956 107.821C16.778 109.965 13.7284 109.965 13.2108 107.821L12.5884 105.243C12.4035 104.477 11.8053 103.878 11.0391 103.693L8.46073 103.071C6.3167 102.553 6.3167 99.5038 8.46073 98.9862L11.0391 98.3638C11.8053 98.1789 12.4035 97.5806 12.5884 96.8145L13.2108 94.2361Z" fill="url(#paint17_linear_364_4589)"/>
<path d="M174.539 146.385C175.057 144.241 178.106 144.241 178.624 146.385L179.246 148.963C179.431 149.729 180.029 150.327 180.795 150.512L183.374 151.135C185.518 151.652 185.518 154.702 183.374 155.219L180.795 155.842C180.029 156.027 179.431 156.625 179.246 157.391L178.624 159.97C178.106 162.114 175.057 162.114 174.539 159.97L173.917 157.391C173.732 156.625 173.133 156.027 172.367 155.842L169.789 155.219C167.645 154.702 167.645 151.652 169.789 151.135L172.367 150.512C173.133 150.327 173.732 149.729 173.917 148.963L174.539 146.385Z" fill="url(#paint18_linear_364_4589)"/>
<path fill-rule="evenodd" clip-rule="evenodd" d="M36.0066 54.4386C37.7543 54.4386 39.1711 53.0218 39.1711 51.2742C39.1711 49.5265 37.7543 48.1097 36.0066 48.1097C34.2589 48.1097 32.8421 49.5265 32.8421 51.2742C32.8421 53.0218 34.2589 54.4386 36.0066 54.4386ZM36.0066 56.812C39.065 56.812 41.5444 54.3326 41.5444 51.2742C41.5444 48.2157 39.065 45.7363 36.0066 45.7363C32.9481 45.7363 30.4688 48.2157 30.4688 51.2742C30.4688 54.3326 32.9481 56.812 36.0066 56.812Z" fill="url(#paint19_linear_364_4589)"/>
<path d="M23.2663 136.619C22.9333 135.313 24.139 134.136 25.4365 134.5L30.1951 135.838C31.4927 136.202 31.9089 137.835 30.9443 138.776L27.407 142.229C26.4424 143.17 24.8205 142.714 24.4875 141.408L23.2663 136.619Z" fill="url(#paint20_linear_364_4589)"/>
<path d="M187.041 114.317C188.347 113.986 189.522 115.193 189.156 116.49L187.812 121.247C187.446 122.544 185.813 122.958 184.873 121.992L181.425 118.45C180.485 117.485 180.943 115.863 182.249 115.532L187.041 114.317Z" fill="url(#paint21_linear_364_4589)"/>
<path fill-rule="evenodd" clip-rule="evenodd" d="M166.949 47.6493C168.353 47.6493 169.491 46.5111 169.491 45.1071C169.491 43.703 168.353 42.5649 166.949 42.5649C165.545 42.5649 164.407 43.703 164.407 45.1071C164.407 46.5111 165.545 47.6493 166.949 47.6493ZM166.949 49.5559C169.406 49.5559 171.398 47.5641 171.398 45.1071C171.398 42.65 169.406 40.6582 166.949 40.6582C164.492 40.6582 162.5 42.65 162.5 45.1071C162.5 47.5641 164.492 49.5559 166.949 49.5559Z" fill="url(#paint22_linear_364_4589)"/>
<rect x="32.8125" y="82.8457" width="137.211" height="9.43779" rx="4.7189" fill="url(#paint23_linear_364_4589)"/>
<path d="M67.4139 11.752C66.1643 16.7505 70.2121 27.2535 76.4602 28.0866C88.0213 29.6281 85.898 16.1079 79.0012 18.6488C70.793 21.6729 79.0071 34.6085 90.2539 37.5244" stroke="#5EC0D6" stroke-linecap="round" stroke-linejoin="round" stroke-dasharray="4 4"/>
<path d="M133.182 10.481C140.053 23.854 121.848 38.1311 116.809 40.7763" stroke="#5EC0D6" stroke-linecap="round" stroke-linejoin="round" stroke-dasharray="4 4"/>
<path d="M126.892 192.684C135.272 192.684 142.065 185.891 142.065 177.511C142.065 169.131 135.272 162.338 126.892 162.338C118.512 162.338 111.719 169.131 111.719 177.511C111.719 185.891 118.512 192.684 126.892 192.684Z" fill="#6FCFE4"/>
<path d="M126.763 185.201C130.973 185.201 134.386 181.788 134.386 177.578C134.386 173.368 130.973 169.955 126.763 169.955C122.553 169.955 119.141 173.368 119.141 177.578C119.141 181.788 122.553 185.201 126.763 185.201Z" fill="url(#paint24_linear_364_4589)"/>
<defs>
<linearGradient id="paint0_linear_364_4589" x1="102.16" y1="-5.20692" x2="103.866" y2="287.229" gradientUnits="userSpaceOnUse">
<stop stop-color="white" stop-opacity="0"/>
<stop offset="1" stop-color="#8EE2F4"/>
</linearGradient>
<linearGradient id="paint1_linear_364_4589" x1="51.6153" y1="110.735" x2="85.4791" y2="144.392" gradientUnits="userSpaceOnUse">
<stop stop-color="white"/>
<stop offset="1" stop-color="#8EE2F4"/>
</linearGradient>
<linearGradient id="paint2_linear_364_4589" x1="225.785" y1="69.4986" x2="149.919" y2="70.9131" gradientUnits="userSpaceOnUse">
<stop stop-color="white"/>
<stop offset="1" stop-color="#8EE2F4"/>
</linearGradient>
<linearGradient id="paint3_linear_364_4589" x1="60.0524" y1="47.7506" x2="152.183" y2="51.4933" gradientUnits="userSpaceOnUse">
<stop stop-color="#90E3F5"/>
<stop offset="1" stop-color="#41ACC4"/>
</linearGradient>
<linearGradient id="paint4_linear_364_4589" x1="84.656" y1="42.2207" x2="84.656" y2="59.0865" gradientUnits="userSpaceOnUse">
<stop stop-color="#CCF6FF"/>
<stop offset="1" stop-color="#B9ECF8"/>
</linearGradient>
<linearGradient id="paint5_linear_364_4589" x1="134.245" y1="42.2207" x2="134.245" y2="59.0865" gradientUnits="userSpaceOnUse">
<stop stop-color="#92DDEC"/>
<stop offset="1" stop-color="#6CCFE3"/>
</linearGradient>
<linearGradient id="paint6_linear_364_4589" x1="88.9563" y1="100.694" x2="169.252" y2="101.963" gradientUnits="userSpaceOnUse">
<stop offset="0.392237" stop-color="#77D3E6"/>
<stop offset="1" stop-color="#E9FCFF"/>
</linearGradient>
<linearGradient id="paint7_linear_364_4589" x1="75.4853" y1="89.7038" x2="105.646" y2="97.5635" gradientUnits="userSpaceOnUse">
<stop stop-color="#E9FBFF"/>
<stop offset="1" stop-color="#BCF3FF"/>
</linearGradient>
<linearGradient id="paint8_linear_364_4589" x1="36.9633" y1="100.378" x2="166.736" y2="101.929" gradientUnits="userSpaceOnUse">
<stop stop-color="#AFF1FF"/>
<stop offset="1" stop-color="#65C8DE"/>
</linearGradient>
<linearGradient id="paint9_linear_364_4589" x1="69.8547" y1="181.387" x2="91.881" y2="181.736" gradientUnits="userSpaceOnUse">
<stop stop-color="white"/>
<stop offset="1" stop-color="#BCF3FF"/>
</linearGradient>
<linearGradient id="paint10_linear_364_4589" x1="36.9633" y1="100.183" x2="166.736" y2="101.734" gradientUnits="userSpaceOnUse">
<stop stop-color="#AFF1FF"/>
<stop offset="1" stop-color="#65C8DE"/>
</linearGradient>
<linearGradient id="paint11_linear_364_4589" x1="-0.261574" y1="30.3265" x2="12.3277" y2="30.3693" gradientUnits="userSpaceOnUse">
<stop stop-color="#62C9E0"/>
<stop offset="1" stop-color="#62C9E0"/>
</linearGradient>
<linearGradient id="paint12_linear_364_4589" x1="-0.261574" y1="30.3265" x2="12.3277" y2="30.3693" gradientUnits="userSpaceOnUse">
<stop stop-color="#62C9E0"/>
<stop offset="1" stop-color="#62C9E0"/>
</linearGradient>
<linearGradient id="paint13_linear_364_4589" x1="-0.261574" y1="30.3265" x2="12.3277" y2="30.3693" gradientUnits="userSpaceOnUse">
<stop stop-color="#62C9E0"/>
<stop offset="1" stop-color="#62C9E0"/>
</linearGradient>
<linearGradient id="paint14_linear_364_4589" x1="-0.261574" y1="30.3265" x2="12.3277" y2="30.3693" gradientUnits="userSpaceOnUse">
<stop stop-color="#62C9E0"/>
<stop offset="1" stop-color="#62C9E0"/>
</linearGradient>
<linearGradient id="paint15_linear_364_4589" x1="126.554" y1="2.21529" x2="137.259" y2="2.29229" gradientUnits="userSpaceOnUse">
<stop stop-color="#90E3F5"/>
<stop offset="1" stop-color="#65C8DE"/>
</linearGradient>
<linearGradient id="paint16_linear_364_4589" x1="67.1061" y1="3.11148" x2="73.835" y2="10.3563" gradientUnits="userSpaceOnUse">
<stop stop-color="#90E3F5"/>
<stop offset="1" stop-color="#65C8DE"/>
</linearGradient>
<linearGradient id="paint17_linear_364_4589" x1="-0.0345506" y1="92.8158" x2="30.6723" y2="93.0152" gradientUnits="userSpaceOnUse">
<stop stop-color="#90E3F5"/>
<stop offset="1" stop-color="#65C8DE"/>
</linearGradient>
<linearGradient id="paint18_linear_364_4589" x1="161.294" y1="144.964" x2="192" y2="145.164" gradientUnits="userSpaceOnUse">
<stop stop-color="#90E3F5"/>
<stop offset="1" stop-color="#65C8DE"/>
</linearGradient>
<linearGradient id="paint19_linear_364_4589" x1="30.4562" y1="48.2924" x2="41.6046" y2="48.3648" gradientUnits="userSpaceOnUse">
<stop stop-color="#90E3F5"/>
<stop offset="1" stop-color="#65C8DE"/>
</linearGradient>
<linearGradient id="paint20_linear_364_4589" x1="20.0074" y1="140.229" x2="29.2218" y2="131.352" gradientUnits="userSpaceOnUse">
<stop stop-color="#90E3F5"/>
<stop offset="1" stop-color="#65C8DE"/>
</linearGradient>
<linearGradient id="paint21_linear_364_4589" x1="183.435" y1="111.054" x2="192.3" y2="120.279" gradientUnits="userSpaceOnUse">
<stop stop-color="#90E3F5"/>
<stop offset="1" stop-color="#65C8DE"/>
</linearGradient>
<linearGradient id="paint22_linear_364_4589" x1="162.49" y1="42.7117" x2="171.446" y2="42.7698" gradientUnits="userSpaceOnUse">
<stop stop-color="#90E3F5"/>
<stop offset="1" stop-color="#65C8DE"/>
</linearGradient>
<linearGradient id="paint23_linear_364_4589" x1="176.194" y1="87.9276" x2="30.6101" y2="62.2825" gradientUnits="userSpaceOnUse">
<stop stop-color="#63C8DE"/>
<stop offset="1" stop-color="#52D2EE"/>
</linearGradient>
<linearGradient id="paint24_linear_364_4589" x1="118.683" y1="181.387" x2="140.709" y2="181.736" gradientUnits="userSpaceOnUse">
<stop stop-color="white"/>
<stop offset="1" stop-color="#BCF3FF"/>
</linearGradient>
</defs>
</svg>
