<svg width="19" height="19" viewBox="0 0 19 19" fill="none" xmlns="http://www.w3.org/2000/svg">
<path d="M9.41235 4.87305C11.8733 4.87305 13.9045 6.9043 13.9045 9.36523C13.9045 11.8652 11.8733 13.8574 9.41235 13.8574C6.91235 13.8574 4.92017 11.8652 4.92017 9.36523C4.92017 6.9043 6.91235 4.87305 9.41235 4.87305ZM9.41235 12.2949C11.0139 12.2949 12.303 11.0059 12.303 9.36523C12.303 7.76367 11.0139 6.47461 9.41235 6.47461C7.77173 6.47461 6.48267 7.76367 6.48267 9.36523C6.48267 11.0059 7.81079 12.2949 9.41235 12.2949ZM15.1155 4.7168C15.1155 5.30273 14.6467 5.77148 14.0608 5.77148C13.4749 5.77148 13.0061 5.30273 13.0061 4.7168C13.0061 4.13086 13.4749 3.66211 14.0608 3.66211C14.6467 3.66211 15.1155 4.13086 15.1155 4.7168ZM18.0842 5.77148C18.1624 7.2168 18.1624 11.5527 18.0842 12.998C18.0061 14.4043 17.6936 15.6152 16.678 16.6699C15.6624 17.6855 14.4124 17.998 13.0061 18.0762C11.5608 18.1543 7.22485 18.1543 5.77954 18.0762C4.37329 17.998 3.16235 17.6855 2.10767 16.6699C1.09204 15.6152 0.779541 14.4043 0.701416 12.998C0.623291 11.5527 0.623291 7.2168 0.701416 5.77148C0.779541 4.36523 1.09204 3.11523 2.10767 2.09961C3.16235 1.08398 4.37329 0.771484 5.77954 0.693359C7.22485 0.615234 11.5608 0.615234 13.0061 0.693359C14.4124 0.771484 15.6624 1.08398 16.678 2.09961C17.6936 3.11523 18.0061 4.36523 18.0842 5.77148ZM16.2092 14.5215C16.678 13.3887 16.5608 10.6543 16.5608 9.36523C16.5608 8.11523 16.678 5.38086 16.2092 4.20898C15.8967 3.4668 15.3108 2.8418 14.5686 2.56836C13.3967 2.09961 10.6624 2.2168 9.41235 2.2168C8.12329 2.2168 5.38892 2.09961 4.2561 2.56836C3.47485 2.88086 2.88892 3.4668 2.57642 4.20898C2.10767 5.38086 2.22485 8.11523 2.22485 9.36523C2.22485 10.6543 2.10767 13.3887 2.57642 14.5215C2.88892 15.3027 3.47485 15.8887 4.2561 16.2012C5.38892 16.6699 8.12329 16.5527 9.41235 16.5527C10.6624 16.5527 13.3967 16.6699 14.5686 16.2012C15.3108 15.8887 15.9358 15.3027 16.2092 14.5215Z" fill="#E8EDF5"/>
</svg>
