<?xml version="1.0" encoding="utf-8"?>
<!-- Generator: Adobe Illustrator 26.3.0, SVG Export Plug-In . SVG Version: 6.00 Build 0)  -->
<svg version="1.1" id="Layer_1" xmlns="http://www.w3.org/2000/svg" xmlns:xlink="http://www.w3.org/1999/xlink" x="0px" y="0px"
	 viewBox="0 0 1080 1080" style="enable-background:new 0 0 1080 1080;" xml:space="preserve">
<style type="text/css">
	.st0{fill:#DE0B18;}
	.st1{fill:#1E1E1C;}
</style>
<polygon class="st0" points="944.68,512.03 1008.28,512.03 1008.28,589.22 "/>
<polygon class="st0" points="767.19,635 767.19,571.4 844.39,571.4 "/>
<rect x="855.81" y="513.64" class="st1" width="45.55" height="147.98"/>
<rect x="747.42" y="513.64" class="st1" width="45.55" height="147.98"/>
<polygon class="st1" points="1016.48,660.28 955.88,660.28 866.09,542.49 901.92,514.36 "/>
<g>
	<path class="st0" d="M93,558.77h27.36v5.76c5.07-2.88,9.49-4.97,13.27-6.27c3.77-1.3,7.71-1.95,11.83-1.95
		c4.8,0,9.43,0.79,13.88,2.37c4.45,1.58,8.12,4.01,11,7.3c6.44-3.29,12.51-5.72,18.2-7.3c5.69-1.58,11.48-2.37,17.38-2.37
		c12.75,0,21.8,3.91,27.15,11.72s8.02,20.43,8.02,37.85v55.74h-27.56V606.7c0-9.19-1.03-15.77-3.09-19.75
		c-2.06-3.98-5.9-5.96-11.52-5.96c-3.98,0-9.26,0.96-15.84,2.88l-3.09,1.03c0.55,9.19,0.82,17,0.82,23.45v53.27h-27.56v-52.86
		c0-7.4-0.38-13.03-1.13-16.87c-0.76-3.84-2.2-6.61-4.32-8.33c-2.13-1.71-5.32-2.57-9.56-2.57c-4.39,0-9.46,0.96-15.22,2.88
		l-2.47,0.82v76.93H93V558.77z"/>
	<path class="st1" d="M258.79,630.35c0-10.7,2.84-18.41,8.54-23.14c5.69-4.73,14.84-7.51,27.46-8.33l22.01-1.65v-6.38
		c0-4.11-0.93-6.99-2.78-8.64s-4.97-2.47-9.36-2.47c-4.52,0-10.77,0.17-18.72,0.51c-7.95,0.34-14.6,0.72-19.95,1.13l-0.82-19.13
		c14.81-3.98,28.8-5.97,41.96-5.97c13.16,0,22.66,2.74,28.49,8.23c5.83,5.49,8.74,14.26,8.74,26.33v42.78
		c0.27,3.43,0.85,5.76,1.75,6.99c0.89,1.23,2.57,2.13,5.04,2.67l-0.82,20.77c-7.13,0-12.79-0.48-16.97-1.44
		c-4.18-0.96-8.33-2.88-12.44-5.76c-10.01,4.8-20.09,7.2-30.24,7.2C269.42,664.09,258.79,652.84,258.79,630.35z M313.71,639.2
		l3.09-0.82v-22.01l-18.72,1.65c-7.68,0.69-11.52,4.8-11.52,12.34c0,7.54,3.36,11.31,10.08,11.31
		C301.85,641.66,307.54,640.84,313.71,639.2z"/>
	<path class="st1" d="M373.57,660.38l-6.58-1.23l0.82-23.04c16.59,2.2,28.66,3.29,36.2,3.29c5.07,0,9.08-0.55,12.03-1.65
		c2.95-1.1,4.42-3.15,4.42-6.17c0-2.74-1.41-4.73-4.22-5.96c-2.81-1.23-7.51-2.4-14.09-3.5c-2.47-0.27-4.18-0.55-5.14-0.82
		c-6.86-1.23-12.48-2.78-16.87-4.63c-4.39-1.85-7.95-4.8-10.7-8.84c-2.74-4.04-4.11-9.7-4.11-16.97c0-11.65,3.56-20.29,10.7-25.92
		c7.13-5.62,16.93-8.43,29.41-8.43c7.4,0,18.31,1.31,32.71,3.91l6.79,1.23l-0.41,22.83c-16.59-2.19-28.87-3.29-36.82-3.29
		c-4.66,0-8.33,0.48-11,1.44c-2.67,0.96-4.01,2.81-4.01,5.55c0,2.88,1.37,4.9,4.11,6.07c2.74,1.17,7.2,2.3,13.37,3.39l7.2,1.23
		c10.97,2.19,18.79,5.45,23.45,9.77c4.66,4.32,6.99,11.28,6.99,20.88c0,11.8-3.36,20.5-10.08,26.12
		c-6.72,5.62-17.07,8.43-31.06,8.43C397.64,664.09,386.6,662.85,373.57,660.38z"/>
	<path class="st1" d="M484.23,660.38c-4.39-2.47-7.54-6.51-9.46-12.14c-1.92-5.62-2.88-13.37-2.88-23.24v-42.78h-12.14v-23.45h12.14
		v-28.59h27.56v28.59h25.3v23.45h-25.3v42.17c0,5.35,0.48,9.22,1.44,11.62c0.96,2.4,3.36,3.53,7.2,3.39l15.63-0.41l1.23,22.01
		c-5.49,1.23-9.77,2.06-12.86,2.47c-3.09,0.41-6.21,0.62-9.36,0.62C494.79,664.09,488.62,662.85,484.23,660.38z"/>
	<path class="st1" d="M548.21,651.95c-7.13-8.09-10.7-21.19-10.7-39.29c0-18.92,3.73-33.05,11.21-42.37
		c7.47-9.32,19.09-13.99,34.87-13.99c14.53,0,25.54,3.88,33.01,11.62c7.47,7.75,11.21,19.37,11.21,34.87l-2.06,19.13h-60.47
		c0.27,4.8,1.13,8.47,2.57,11c1.44,2.54,3.77,4.32,6.99,5.35c3.22,1.03,7.71,1.54,13.47,1.54c4.53,0,9.94-0.13,16.25-0.41
		c6.31-0.27,10.9-0.55,13.78-0.82l5.76-0.62l0.41,20.36c-15.5,3.84-29.35,5.76-41.55,5.76
		C566.92,664.09,555.33,660.04,548.21,651.95z M600.66,600.94c0-8.23-1.27-13.95-3.81-17.18c-2.54-3.22-7.03-4.83-13.47-4.83
		c-6.58,0-11.25,1.68-13.99,5.04c-2.75,3.36-4.18,9.02-4.32,16.97H600.66z"/>
	<path class="st1" d="M647.56,558.77h27.36v10.9c11.79-6.86,22.76-11.31,32.91-13.37v27.77c-10.29,2.06-19.82,4.46-28.59,7.2
		l-4.11,1.44v68.91h-27.56V558.77z"/>
</g>
</svg>
