<svg xmlns="http://www.w3.org/2000/svg" width="16.772" height="15.483" viewBox="10.917 9.892 16.772 15.483"><path d="M19.101 9.895a5.11 5.11 0 0 0-1.955.423c-.85.365-1.769 1.068-2.338 2.318-.449.985-.313 2.214-.242 3.225-.103-.02-.189-.01-.343-.08a1.06 1.06 0 0 0-.443-.102c-.262 0-.486.07-.706.202-.219.131-.473.343-.544.705-.043.227.023.565.222.807.199.242.494.413.887.564.093.035.164.076.242.1.166.051.347.102.463.162.116.06.134.108.121.08a.546.546 0 0 1-.06.162l-.02.02c-.018.038-.93 2.02-2.782 2.318a.821.821 0 0 0-.685.847.92.92 0 0 0 .08.302c.144.33.429.542.807.705.304.131.793.225 1.33.323.01.035.01.033.02.08.025.114.055.258.1.404.059.191.215.4.404.504.189.103.353.1.443.1.194 0 .315-.035.444-.06.211-.04.44-.08.746-.08.168 0 .362.01.544.04.252.04.534.231.927.503.57.393 1.33.907 2.439.907h.04c.033 0 .076.003.1 0h.061c1.109 0 1.867-.514 2.44-.907.392-.27.695-.463.947-.503.181-.03.355-.04.524-.04.3 0 .514.037.745.08.162.03.29.06.444.06h.02a.93.93 0 0 0 .524-.16c.169-.122.26-.318.302-.465.043-.143.074-.264.101-.382.01-.05.01-.046.02-.081.537-.098 1.026-.192 1.33-.323.379-.163.663-.375.807-.705a.954.954 0 0 0 .08-.302.818.818 0 0 0-.665-.847h-.02c-.927-.149-1.605-.688-2.076-1.23-.471-.541-.708-1.075-.705-1.068a.587.587 0 0 1-.02-.04.545.545 0 0 1-.06-.161c-.014.027.004-.02.12-.08.116-.061.297-.112.464-.162.083-.025.168-.066.262-.101.345-.134.59-.265.786-.464.196-.199.327-.496.322-.745-.01-.534-.403-.83-.786-.968-.002 0 .003-.02 0-.02-.007-.003-.012.003-.02 0a1.277 1.277 0 0 0-.484-.08 1.13 1.13 0 0 0-.504.1c-.11.05-.176.038-.262.06.07-1.005.207-2.224-.242-3.204-.569-1.25-1.486-1.97-2.338-2.338a5.045 5.045 0 0 0-1.995-.403h-.322c-.006 0 .017-.005-.04 0Zm.04 1.29H19.463c.258 0 .85.035 1.472.302.623.267 1.26.746 1.693 1.693.2.438.21 1.71.141 2.741l-.02.04c-.01.144-.012.288-.02.424a.64.64 0 0 0 .182.484c.075.075.37.211.685.282-.234.133-.499.307-.645.645-.161.373-.088.76.06 1.108.005.02.013.04.02.06.003.006-.002.016 0 .021v.02c.006.008.016.013.02.02.051.116.318.713.908 1.391.393.451.98.872 1.673 1.21-.22.055-.318.108-.666.16-.312.049-.549.33-.624.505-.07.158-.089.294-.121.443-.252-.045-.534-.1-.907-.1-.242 0-.502.02-.746.06-.622.1-1.06.436-1.451.705-.575.393-.988.685-1.714.685-.025 0-.05.003-.08 0a.43.43 0 0 0-.08 0h-.041c-.726 0-1.144-.292-1.713-.685-.393-.27-.827-.605-1.452-.705a4.676 4.676 0 0 0-.745-.06c-.391 0-.67.04-.887.08a2.109 2.109 0 0 0-.121-.403c-.073-.172-.298-.471-.645-.524-.338-.05-.429-.106-.645-.162 1.698-.82 2.484-2.408 2.56-2.58v-.02c0-.002.017-.015.02-.02.01-.017.022-.03.04-.1l-.04-.02c.143-.348.242-.721.08-1.09-.15-.347-.425-.53-.665-.664.3-.063.6-.154.706-.262a.64.64 0 0 0 .181-.484c-.007-.151-.01-.302-.02-.464-.066-1.033-.078-2.303.12-2.741.434-.947 1.074-1.426 1.694-1.693a3.869 3.869 0 0 1 1.471-.302Z" fill="#fff" fill-rule="evenodd" data-name="snapchat"/></svg>