<svg width="22" height="16" viewBox="0 0 22 16" fill="none" xmlns="http://www.w3.org/2000/svg">
<path d="M20.9426 2.99805C21.4113 4.63867 21.4113 8.1543 21.4113 8.1543C21.4113 8.1543 21.4113 11.6309 20.9426 13.3105C20.7082 14.248 19.966 14.9512 19.0676 15.1855C17.3879 15.6152 10.7473 15.6152 10.7473 15.6152C10.7473 15.6152 4.06758 15.6152 2.38789 15.1855C1.48945 14.9512 0.747266 14.248 0.512891 13.3105C0.0441408 11.6309 0.0441408 8.1543 0.0441408 8.1543C0.0441408 8.1543 0.0441408 4.63867 0.512891 2.99805C0.747266 2.06055 1.48945 1.31836 2.38789 1.08398C4.06758 0.615234 10.7473 0.615234 10.7473 0.615234C10.7473 0.615234 17.3879 0.615234 19.0676 1.08398C19.966 1.31836 20.7082 2.06055 20.9426 2.99805ZM8.55977 11.3184L14.1066 8.1543L8.55977 4.99023V11.3184Z" fill="white"/>
</svg>
